# Alias OBJ Model File
# Exported from SketchUp, (c) 2000-2012 Trimble Navigation Limited
# File units = inches

mtllib drawer.mtl

g Mesh1 Model

usemtl Wood_Cherry_Original
v 12.9816 19.6878 3.13638e-14
vt 0.246573 -0.273438
vn 0.866025 0.5 6.45802e-16
v 13.6591 18.0523 2.40641e-14
vt 0.271231 -0.273438
vn 0.965926 0.258819 3.44432e-16
v 13.6591 18.0523 -19.6875
vt 0.271231 -5.55112e-17
v 12.9816 19.6878 -19.6875
vt 0.246573 -1.11022e-16
f 1/1/1 2/2/2 3/3/2 4/4/1 

usemtl Wood_Veneer_01
v 0 0 -0
vt 0 0
vn -1.95897e-17 -1.25767e-15 1
v 13.5625 0 -0
vt 0.188368 -4.64091e-33
v 13.8902 16.2972 1.81521e-14
vt 0.192919 0.226349
vt 0.18971 0.250726
vt 0.180301 0.273441
v 11.904 21.0922 2.45914e-14
vt 0.165333 0.292948
v 10.4995 22.1699 2.2482e-14
vt 0.145827 0.307915
v 8.86402 22.8473 2.79221e-14
vt 0.123111 0.317324
v 7.10891 23.0784 2.94764e-14
vt 0.0987348 0.320533
v 5.35379 22.8473 2.79221e-14
vt 0.0743582 0.317324
v 3.71828 22.1699 2.32037e-14
vt 0.0516428 0.307915
v 2.31384 21.0922 2.45914e-14
vt 0.0321367 0.292948
v 1.23617 19.6878 3.13638e-14
vt 0.0171691 0.273441
v 0.558723 18.0523 2.40641e-14
vt 0.00776004 0.250726
v 0.327658 16.2972 1.81521e-14
vt 0.0045508 0.226349
f 5/5/3 6/6/3 7/7/3 2/8/3 1/9/3 8/10/3 9/11/3 10/12/3 11/13/3 12/14/3 13/15/3 14/16/3 15/17/3 16/18/3 17/19/3 

usemtl FrontColor
vt -13.5625 0
vn 0 -1 -1.25767e-15
v 3.85672e-16 2.47605e-14 -19.6875
vt -3.85672e-16 19.6875
v 13.5625 2.47605e-14 -19.6875
vt -13.5625 19.6875
f 6/20/4 5/5/4 18/21/4 19/22/4 

usemtl Wood_Cherry_Original
vn -0.999798 0.0201011 5.69494e-18
vt 2.52139e-16 0.226395
v 0.327658 16.2972 -19.6875
vt -0.273437 0.226395
vt -0.273438 3.43965e-16
f 5/5/5 17/23/5 20/24/5 18/25/5 

vt 5.82867e-16 -0.273438
vn -0.991445 0.130526 1.44737e-16
vt 0.0246573 -0.273438
vn -0.965926 0.258819 3.06588e-16
v 0.558723 18.0523 -19.6875
vt 0.0246573 -5.55112e-17
vt 0 -5.55112e-17
f 17/26/6 16/27/7 21/28/7 20/29/6 

vt 0.0493146 -0.273438
vn -0.866025 0.5 6.11872e-16
v 1.23617 19.6878 -19.6875
vt 0.0493146 -5.55112e-17
vt 0.0246573 0
f 16/27/7 15/30/8 22/31/8 21/32/7 

vt 0.073972 -0.273437
vn -0.707107 0.707107 8.75458e-16
v 2.31384 21.0922 -19.6875
vt 0.073972 5.55112e-17
vt 0.0493146 -1.11022e-16
f 15/30/8 14/33/9 23/34/9 22/35/8 

vt 0.073972 -0.273438
vt 0.0986293 -0.273437
vn -0.5 0.866025 1.07938e-15
v 3.71828 22.1699 -19.6875
vt 0.0986293 5.55112e-17
vt 0.073972 0
f 14/36/9 13/37/10 24/38/10 23/39/9 

vt 0.123287 -0.273437
vn -0.258819 0.965926 1.20975e-15
v 5.35379 22.8473 -19.6875
vt 0.123287 5.55112e-17
vt 0.0986293 1.66533e-16
f 13/37/10 12/40/11 25/41/11 24/42/10 

vt 0.147944 -0.273438
vn 0 1 1.25767e-15
v 7.10891 23.0784 -19.6875
vt 0.147944 5.55112e-17
f 12/40/11 11/43/12 26/44/12 25/41/11 

vt 0.147944 -0.273437
vt 0.172601 -0.273437
vn 0.258819 0.965926 1.21989e-15
v 8.86402 22.8473 -19.6875
vt 0.172601 1.11022e-16
vt 0.147944 1.11022e-16
f 11/45/12 10/46/13 27/47/13 26/48/12 

vt 0.197259 -0.273437
vn 0.5 0.866025 1.09897e-15
v 10.4995 22.1699 -19.6875
vt 0.197259 1.11022e-16
f 10/46/13 9/49/14 28/50/14 27/47/13 

vt 0.221916 -0.273437
vn 0.707107 0.707107 9.03162e-16
v 11.904 21.0922 -19.6875
vt 0.221916 5.55112e-17
f 9/49/14 8/51/15 29/52/15 28/50/14 

vt 0.221916 -0.273438
vt 0.246573 -2.22045e-16
vt 0.221916 -5.55112e-17
f 8/53/15 1/1/1 4/54/1 29/55/15 

vt -0.180301 0.273441
vn 9.27166e-19 1.20766e-15 -1
vt -0.0321367 0.292948
vt -0.165333 0.292948
f 4/56/16 23/57/16 29/58/16

vt -0.0171691 0.273441
f 4/56/16 22/59/16 23/57/16

vt -0.18971 0.250726
f 3/60/16 22/59/16 4/56/16

vt -0.00776004 0.250726
f 3/60/16 21/61/16 22/59/16

v 13.8902 16.2972 -19.6875
vt -0.192919 0.226349
f 30/62/16 21/61/16 3/60/16

vt -0.0045508 0.226349
f 30/62/16 20/63/16 21/61/16

v 2.2116 16.2868 -19.6875
vt -0.0307166 0.226206
f 30/62/16 31/64/16 20/63/16

v 13.288 16.2476 -19.6875
vt -0.184556 0.225662
f 30/62/16 32/65/16 31/64/16

v 13.288 0.560144 -19.6875
vt -0.184556 0.00777977
f 30/62/16 33/66/16 32/65/16

vt -0.188368 1.3677e-17
f 19/67/16 33/66/16 30/62/16

v 2.2116 0.286834 -19.6875
vt -0.0307166 0.00398381
f 33/66/16 19/67/16 34/68/16

v 0.649095 0.286834 -19.6875
vt -0.00901521 0.00398381
f 34/68/16 19/67/16 35/69/16

vt -5.10304e-18 1.3677e-17
f 18/70/16 35/69/16 19/67/16

f 35/69/16 18/70/16 20/63/16

v 0.649095 16.2868 -19.6875
vt -0.00901521 0.226206
f 35/69/16 20/63/16 36/71/16

f 36/71/16 20/63/16 31/64/16

vn 0 0 -1
f 35/69/17 36/71/17 31/64/17 34/68/17 

v 2.66612 14.5601 -19.6875
vt -0.0370294 0.202224
f 37/72/16 34/68/16 31/64/16

v 11.8505 0.560144 -19.6875
vt -0.164591 0.00777977
f 34/68/16 37/72/16 38/73/16

v 11.3536 14.5601 -19.6875
vt -0.157689 0.202224
f 39/74/16 38/73/16 37/72/16

v 11.8505 16.2476 -19.6875
vt -0.164591 0.225662
f 38/73/16 39/74/16 40/75/16

v 11.3536 16.2476 -19.6875
vt -0.157689 0.225662
f 40/75/16 39/74/16 41/76/16

v 2.66612 16.2476 -19.6875
vt -0.0370294 0.225662
f 42/77/17 41/76/17 39/74/17 37/72/17 

f 42/77/16 31/64/16 41/76/16

f 37/72/16 31/64/16 42/77/16

f 41/76/16 31/64/16 40/75/16

f 40/75/16 31/64/16 32/65/16

usemtl FrontColor
vt -11.8505 19.6875
vn 0 -1 -0
vt -13.288 19.6875
v 13.288 16.2476 -19.5625
vt -13.288 19.5625
v 11.8505 16.2476 -19.5625
vt -11.8505 19.5625
f 40/78/18 32/79/18 43/80/18 44/81/18 

vt -19.6875 16.2476
vn -1 0 -0
vt -19.6875 0.560144
v 13.288 0.560144 -19.5625
vt -19.5625 0.560144
vt -19.5625 16.2476
f 32/82/19 33/83/19 45/84/19 43/85/19 

vt 13.288 19.6875
vn 0 1 -0
vt 11.8505 19.6875
v 11.8505 0.560144 -19.5625
vt 11.8505 19.5625
vt 13.288 19.5625
f 33/86/20 38/87/20 46/88/20 45/89/20 

usemtl Wood_Cherry_Original
f 33/66/16 34/68/16 38/73/16

usemtl FrontColor
vt 19.6875 0.560144
vn 1 0 -0
vt 19.6875 16.2476
vt 19.5625 16.2476
vt 19.5625 0.560144
f 38/90/21 40/91/21 44/92/21 46/93/21 

usemtl Wood_Cherry_Original
f 46/73/17 44/75/17 43/65/17 45/66/17 

vt -2.53212e-16 0.230182
vn 0.999798 -0.0201011 -5.69494e-18
vt -1.07296e-18 0.00378641
vt 0.273438 0.00378641
vt 0.273437 0.230182
f 7/94/22 6/95/22 19/96/22 30/97/22 

vt 0.295888 -0.273438
vn 0.991445 0.130526 1.83582e-16
vt 0.295888 -5.55112e-17
vt 0.271231 -1.66533e-16
f 2/2/2 7/98/23 30/99/23 3/100/2 

vt -0.0516428 0.307915
f 29/58/16 23/57/16 24/101/16

vt -0.145827 0.307915
f 29/58/16 24/101/16 28/102/16

vt -0.0743582 0.317324
f 28/102/16 24/101/16 25/103/16

vt -0.123111 0.317324
f 28/102/16 25/103/16 27/104/16

vt -0.0987348 0.320533
f 27/104/16 25/103/16 26/105/16

